# xmcd CD database file
#
# Track frame offsets:
#	183
#	30983
#	62383
#	82383
#	119108
#	150608
#	168908
#	195120
#	242308
#	273633
#	299033
#
# Disc length: 4217 seconds
#
# Revision: 1
# Processed by: cddbd v1.5.2PL0 Copyright (c) Steve Scherf et al.
# Submitted via: CDex 1.70beta2
#
DISCID=9410770b
DTITLE=Thomas Clausen Trio ft. Gary Burton - Flowers and Trees
DYEAR=1992
DGENRE=Jazz
TTITLE0=Moonlight
TTITLE1=Dream
TTITLE2=Playtime
TTITLE3=Flowers and Trees
TTITLE4=Holidays
TTITLE5=Spanish Blue
TTITLE6=Blue in Green
TTITLE7=The Lion and the Virgin
TTITLE8=Choral
TTITLE9=Autumn Leaves
TTITLE10=Four on the Floor
EXTD=YEAR: 1992
EXTT0=
EXTT1=
EXTT2=
EXTT3=
EXTT4=
EXTT5=
EXTT6=
EXTT7=
EXTT8=
EXTT9=
EXTT10=
PLAYORDER=
